Coordinates
datacolumns 6
datarows 132
range 0 1.31
inDegrees=yes
Units are S.I. units (second, meters, Newtons, ...)
If the header above contains a line with 'inDegrees', this indicates whether rotational values are in degrees (yes) or radians (no).
endheader
time	foot_tx	hip_flexion_r	knee_angle_r	ankle_angle_r	lumbar
0	0.2018244	67.41530485	-73.62354404	2.46120512	-17.62997733
0.01	0.20184608	67.53469612	-73.61974198	2.4650175	-17.73494071
0.02	0.20187488	67.66146526	-73.61222489	2.46624305	-17.85202435
0.03	0.20190577	67.7948941	-73.60275849	2.4665559	-17.98138497
0.04	0.20192226	67.90819987	-73.59381057	2.47124838	-18.15529791
0.05	0.20194932	68.0674274	-73.58245973	2.471253	-18.29689648
0.06	0.20196617	68.2355892	-73.56986213	2.47218151	-18.44961334
0.07	0.20197691	68.41555301	-73.55697759	2.47471863	-18.60909419
0.08	0.20197519	68.60959679	-73.54327594	2.47900653	-18.77278543
0.09	0.20196545	68.81895536	-73.52692198	2.48414943	-18.93888109
0.1	0.20193768	69.08336171	-73.51225465	2.48980248	-19.06065932
0.11	0.20189772	69.35209841	-73.49572553	2.49816594	-19.1987907
0.12	0.20184651	69.64184099	-73.47673834	2.50734086	-19.33550751
0.13	0.20178577	69.9537259	-73.45475196	2.51667026	-19.4716178
0.14	0.20172021	70.29028358	-73.42800789	2.52456181	-19.6069009
0.15	0.20164844	70.65476375	-73.39759792	2.53142773	-19.73945665
0.16	0.20157761	71.04987995	-73.36141996	2.53581856	-19.86817199
0.17	0.20150595	71.47496334	-73.32257984	2.5404886	-19.99376787
0.18	0.20143866	71.93091589	-73.28171797	2.54644614	-20.11539451
0.19	0.20137798	72.41632675	-73.24023457	2.55518362	-20.23578397
0.2	0.2013217	72.9295987	-73.19981528	2.56827652	-20.35930072
0.21	0.20127136	73.47547339	-73.15911492	2.58459091	-20.48258911
0.22	0.20122685	74.05180622	-73.11797401	2.60431919	-20.61021386
0.23	0.20118621	74.66719192	-73.07503231	2.62630486	-20.73213015
0.24	0.20113779	75.32415638	-73.03084275	2.65188769	-20.84545928
0.25	0.20109176	76.02826105	-72.98364383	2.6795512	-20.94166943
0.26	0.20102666	76.7849481	-72.93465052	2.71231296	-21.01130502
0.27	0.20094593	77.60096954	-72.88229788	2.75003068	-21.04083267
0.28	0.20084577	78.4818723	-72.82630815	2.79393339	-21.01710103
0.29	0.20072106	79.42959032	-72.76820767	2.84655283	-20.93019746
0.3	0.2005726	80.44234871	-72.70586869	2.90831303	-20.7753624
0.31	0.20039576	81.52481705	-72.64368923	2.98242034	-20.53839953
0.32	0.20021566	82.66591687	-72.57431534	3.06530388	-20.22678206
0.33	0.19999895	83.8557258	-72.51099913	3.16873871	-19.84365287
0.34	0.19978501	85.09148745	-72.4476218	3.28793986	-19.3859519
0.35	0.1995886	86.35746946	-72.38066533	3.42376444	-18.86473887
0.36	0.19937193	87.64032296	-72.32362649	3.5899959	-18.28631876
0.37	0.19919016	88.93378629	-72.2620612	3.77855135	-17.64844808
0.38	0.19904449	90.22253884	-72.19402062	3.9918423	-16.96125056
0.39	0.19894101	91.48985526	-72.1157986	4.22974761	-16.23774727
0.4	0.19889624	92.71957758	-72.01950839	4.48762772	-15.49205306
0.41	0.19891335	93.88726741	-71.90182591	4.76372903	-14.74907832
0.42	0.19900064	94.96999645	-71.75875442	5.05462724	-14.03191036
0.43	0.19915257	95.94345619	-71.59131694	5.35982568	-13.36490975
0.44	0.19936418	96.78279632	-71.40003883	5.67796739	-12.77268194
0.45	0.19962408	97.47014028	-71.1889684	6.00899396	-12.27134164
0.46	0.19992091	97.99569504	-70.95977686	6.35123112	-11.86495212
0.47	0.20023349	98.35430129	-70.7163335	6.70485606	-11.5522576
0.48	0.20053831	98.55299783	-70.45935603	7.06881821	-11.31557098
0.49	0.20081921	98.60454857	-70.19090056	7.44269784	-11.12959592
0.5	0.20106729	98.51701884	-69.90306713	7.821157	-10.98010811
0.51	0.20130445	98.31757534	-69.58262387	8.19275445	-10.82928916
0.52	0.20150017	97.97464646	-69.23285501	8.56298577	-10.71571287
0.53	0.20169149	97.52995819	-68.83586269	8.91566141	-10.58717241
0.54	0.20187893	96.97422558	-68.38278093	9.24649756	-10.45768272
0.55	0.20207261	96.31624217	-67.86389348	9.54860948	-10.31926973
0.56	0.2022663	95.55971103	-67.2742281	9.819155	-10.17081903
0.57	0.20245988	94.71212627	-66.60897324	10.0551079	-10.00741177
0.58	0.20265083	93.77806224	-65.86622972	10.25496169	-9.82863262
0.59	0.20283878	92.76113635	-65.04467395	10.41766028	-9.635978
0.6	0.20302338	91.66143866	-64.14495547	10.54320586	-9.43563719
0.61	0.20320658	90.47615463	-63.16776998	10.63161946	-9.23736473
0.62	0.20338857	89.20547339	-62.11274397	10.68237601	-9.04675727
0.63	0.20357333	87.83801923	-60.98370077	10.69785899	-8.88160523
0.64	0.20376329	86.37484831	-59.78089654	10.67815571	-8.74215654
0.65	0.20396259	84.81618593	-58.50417165	10.62311997	-8.62694891
0.66	0.20417331	83.16647114	-57.15578071	10.53383667	-8.52985448
0.67	0.20440329	81.43706866	-55.73760712	10.41053617	-8.43095222
0.68	0.20464587	79.63143005	-54.25051741	10.25380966	-8.32782182
0.69	0.2049028	77.75652206	-52.6987882	10.06520219	-8.21113921
0.7	0.2051695	75.81261058	-51.08861176	9.84782666	-8.08345153
0.71	0.20544138	73.79807699	-49.42733676	9.60555138	-7.95120247
0.72	0.20571248	71.70689795	-47.72222883	9.34278339	-7.82697437
0.73	0.20597725	69.53376771	-45.97911353	9.06330162	-7.72224465
0.74	0.20623395	67.28553903	-44.20129541	8.76850618	-7.63270177
0.75	0.20648092	64.97203218	-42.39219955	8.45973075	-7.55032681
0.76	0.20671867	62.60039959	-40.55554094	8.13842369	-7.47013082
0.77	0.20694902	60.18486266	-38.69653026	7.80610523	-7.37915361
0.78	0.20717487	57.72892993	-36.82215869	7.46554706	-7.27985116
0.79	0.20739868	55.24497146	-34.94000341	7.11917967	-7.16447944
0.8	0.2076208	52.74770723	-33.05868863	6.77007036	-7.02375653
0.81	0.20783876	50.24330063	-31.18697148	6.42219612	-6.86026788
0.82	0.20804962	47.75168074	-29.33422288	6.07890229	-6.66120232
0.83	0.20825023	45.2869187	-27.51055563	5.74426264	-6.42402257
0.84	0.20843634	42.86406634	-25.72710582	5.42271285	-6.14764814
0.85	0.20860878	40.50746846	-23.99543938	5.11745194	-5.82167939
0.86	0.2087654	38.22994039	-22.32766673	4.8326514	-5.45201966
0.87	0.20890799	36.05665272	-20.73574767	4.57083579	-5.03065633
0.88	0.20903559	33.99847829	-19.22983343	4.3348273	-4.56534462
0.89	0.2091475	32.06892148	-17.81749272	4.12589924	-4.05749694
0.9	0.20924487	30.27811899	-16.50257943	3.94394591	-3.50765942
0.91	0.2093262	28.61897499	-15.28476706	3.78848393	-2.93160612
0.92	0.20939024	27.09460925	-14.16162086	3.65747037	-2.32910252
0.93	0.20943543	25.69661648	-13.12760289	3.54849719	-1.70927774
0.94	0.20946022	24.41497948	-12.17605755	3.45902377	-1.07994955
0.95	0.20946537	23.23852751	-11.3008385	3.38698061	-0.44906958
0.96	0.20945683	22.15386679	-10.49703616	3.3310024	0.17249884
0.97	0.20944051	21.15482762	-9.75989806	3.28952965	0.78361513
0.98	0.2094287	20.22910738	-9.08594045	3.26194565	1.37441544
0.99	0.20942674	19.36783524	-8.47070831	3.24748115	1.9405014
1	0.20943955	18.56521748	-7.90865927	3.24470239	2.48229969
1.01	0.20946792	17.81596224	-7.39373535	3.25185734	3.00008858
1.02	0.20950645	17.11476027	-6.92008236	3.26726114	3.49279954
1.03	0.20953925	16.45812439	-6.48129083	3.28978077	3.96587737
1.04	0.20955419	15.84290541	-6.07349703	3.31830879	4.41792124
1.05	0.20954693	15.26746854	-5.69237817	3.35131727	4.85164763
1.06	0.20951695	14.7310303	-5.33492961	3.38770732	5.27027642
1.07	0.20946747	14.22871651	-5.00067252	3.4284227	5.67380029
1.08	0.20941049	13.76109612	-4.69009311	3.47335716	6.06440364
1.09	0.20935629	13.34573572	-4.40790122	3.52392217	6.46478726
1.1	0.20932572	12.92728511	-4.15516812	3.58378656	6.81103301
1.11	0.20933332	12.56606026	-3.94156534	3.65356425	7.17400639
1.12	0.20940941	12.22982609	-3.77438681	3.73784377	7.5135802
1.13	0.20957305	11.91997634	-3.65498689	3.83688314	7.8344838
1.14	0.20984193	11.63679842	-3.58573861	3.95133945	8.13833701
1.15	0.2102168	11.40917627	-3.57186382	4.08172701	8.45695079
1.16	0.21070155	11.15688304	-3.5853178	4.21918943	8.71187512
1.17	0.21126607	10.94344739	-3.63346092	4.36400702	8.97201338
1.18	0.21189208	10.70907628	-3.68826102	4.50699403	9.183017
1.19	0.2125439	10.48229641	-3.74813025	4.64701378	9.37831437
1.2	0.21319538	10.25524748	-3.80089946	4.77993054	9.55619048
1.21	0.21381516	10.00665178	-3.84448628	4.90763774	9.6909168
1.22	0.21439015	9.76847373	-3.87669347	5.02789947	9.82409539
1.23	0.2149197	9.536255	-3.8995798	5.1421457	9.94927094
1.24	0.21540598	9.31478649	-3.91543742	5.25110013	10.07089563
1.25	0.21585595	9.10818644	-3.92812366	5.355889	10.19129774
1.26	0.21627828	8.93249	-3.94018226	5.4561755	10.32789183
1.27	0.21667454	8.75096855	-3.95298379	5.55448982	10.43400985
1.28	0.21704758	8.60523481	-3.96811181	5.64851716	10.55823331
1.29	0.21740503	8.47148421	-3.98377293	5.73820478	10.67373039
1.3	0.21773702	8.35125638	-3.99878763	5.82323333	10.78207236
1.31	0.21804042	8.24287261	-4.0106173	5.90246575	10.8836645
